<svg xmlns="http://www.w3.org/2000/svg" viewBox="0 0 543.0853 290.877"><defs><style>.cls-1{fill:#0d1f42;}.cls-2{fill:#fff;}.cls-3{fill:aqua;}</style></defs><g id="Layer_2" data-name="Layer 2"><g id="Layer_2-2" data-name="Layer 2"><path class="cls-1" d="M426.3447,0H116.7406A77.5385,77.5385,0,0,0,49.59,38.7693l-39.2021,67.9a77.5388,77.5388,0,0,0,0,77.5386l39.2021,67.9a77.5384,77.5384,0,0,0,67.15,38.7692H426.3447a77.5385,77.5385,0,0,0,67.15-38.7692l39.2021-67.9a77.5388,77.5388,0,0,0,0-77.5386l-39.2021-67.9A77.5386,77.5386,0,0,0,426.3447,0Z"/><path class="cls-2" d="M153.9317,74.9107a22.9166,22.9166,0,0,0-22.9531,22.8269c0,10.61,7.7837,21.0064,19.2085,22.0961l.9621,70.0492c0,7.0624.5949,8.4659,2.7825,10.3835,2.4044-2.0113,2.7875-3.3211,2.7875-10.3835l.9636-70.0492c10.0117-1.2967,19.2084-11.4862,19.2084-22.0961a22.9179,22.9179,0,0,0-22.9595-22.8269m-.0468,41.0458A18.3854,18.3854,0,1,1,172.2686,97.57a18.3862,18.3862,0,0,1-18.3837,18.3869"/><path class="cls-2" d="M163.0622,211.148l-9.3229,7.8159-9.1595-8.0262c-7.0624-6.1765-7.6268-13.1806-7.6268-21.0613l-.815-59.74a34.8069,34.8069,0,0,1-8.8426-6.6616l-3.7138,2.1376a38.89,38.89,0,0,0,8.3833,6.9783l.7939,57.3535c0,8.5274.6969,16.822,9.0594,24.1592l9.1547,8.0069,2.7033,2.3864,2.7438-2.3283,9.3229-7.816c.0082-.0064.0244-.0129.0308-.0193Z"/><path class="cls-2" d="M153.9253,56.527A41.3373,41.3373,0,0,0,112.582,97.7441a40.5313,40.5313,0,0,0,2.2232,13.1808l3.6816-2.1408a36.5784,36.5784,0,0,1-1.7123-11.04,37.1518,37.1518,0,0,1,74.3032,0c0,13.2843-7.9825,25.7308-19.3394,32.0851l-.82,60.2413c0,3.5959,0,7.5152-1.2256,11.3956l3.1028,3.6445c2.3153-5.3293,2.3169-10.6907,2.3169-15.04l.7939-57.8548c11.84-7.567,19.3636-20.8544,19.3636-34.4716A41.3209,41.3209,0,0,0,153.9253,56.527"/><path class="cls-3" d="M127.2923,123.4749l-3.7059,2.1376a38.9786,38.9786,0,0,0,8.3785,6.9783l.7939,57.3535c0,8.5274.6969,16.822,9.0594,24.1592L150.97,222.11l2.7049,2.3864,2.7454-2.3283,9.3277-7.816-2.6855-3.2045-9.3229,7.8159L144.58,210.941c-7.0624-6.18-7.6268-13.1808-7.6268-21.0646l-.82-59.74a34.756,34.756,0,0,1-8.8409-6.6616"/><path class="cls-2" d="M209.0571,101.0554c-.9829,14.6489-8.3979,28.4117-19.3829,37.9479l-.6888,51.1092c0,8.11-.1261,22.9887-14.3124,34.8661l-21.2085,17.7921L132.6764,224.542c-13.6625-11.9874-13.787-26.5134-13.787-34.4295l-.692-50.5044A55.1116,55.1116,0,1,1,207.0862,82.801h4.3607a59.39,59.39,0,1,0-97.4227,58.7343l.6775,48.616c0,7.8159,0,24.2012,15.2115,37.5307l20.8075,18.2318,2.684,2.3638,2.76-2.2991,21.1858-17.7759c15.8243-13.2615,15.8243-30.0445,15.8243-38.09l.6725-49.2239c11.3779-10.5193,18.4583-25.1066,19.4025-39.8332Z"/><polygon class="cls-2" points="251.144 130.379 271.543 130.379 271.543 136.061 244.751 136.061 244.751 90.358 251.144 90.358 251.144 130.379"/><path class="cls-2" d="M305.2414,120.694a16.5638,16.5638,0,0,1-1.26,6.5224,15.5,15.5,0,0,1-3.4876,5.1319,15.7034,15.7034,0,0,1-5.2645,3.3567,18.3508,18.3508,0,0,1-13.0351,0,15.3213,15.3213,0,0,1-5.2339-3.3567,15.5993,15.5993,0,0,1-3.4488-5.1319,16.51,16.51,0,0,1-1.2611-6.5224,16.2519,16.2519,0,0,1,1.2611-6.4838,15.3549,15.3549,0,0,1,3.4488-5.0671,15.5928,15.5928,0,0,1,5.2339-3.3276,18.3954,18.3954,0,0,1,13.0351,0,15.9879,15.9879,0,0,1,5.2645,3.3276,15.26,15.26,0,0,1,3.4876,5.0671,16.3051,16.3051,0,0,1,1.26,6.4838m-6.3285.0354a12.9922,12.9922,0,0,0-.679-4.1876,10.6351,10.6351,0,0,0-1.9742-3.5053,9.4891,9.4891,0,0,0-3.2095-2.4091,11.0407,11.0407,0,0,0-8.7425,0,9.4075,9.4075,0,0,0-3.2045,2.4091,10.594,10.594,0,0,0-1.9709,3.5053,13.161,13.161,0,0,0,0,8.3753,10.9954,10.9954,0,0,0,1.9709,3.541,9.33,9.33,0,0,0,3.2045,2.4415,11.0768,11.0768,0,0,0,8.7425,0,9.41,9.41,0,0,0,3.2095-2.4415,11.039,11.039,0,0,0,1.9742-3.541,12.9919,12.9919,0,0,0,.679-4.1877"/><path class="cls-2" d="M333.0611,113.2079a7.4691,7.4691,0,0,0-2.9055-2.4868,8.88,8.88,0,0,0-4.1294-.9959,9.34,9.34,0,0,0-7.3583,3.3242,10.5424,10.5424,0,0,0-1.9694,3.515,13.3611,13.3611,0,0,0,0,8.3916,10.6684,10.6684,0,0,0,1.9694,3.5215,9.4368,9.4368,0,0,0,3.1641,2.4156,9.6327,9.6327,0,0,0,4.2556.9055,9.74,9.74,0,0,0,4.2346-.9055,8.7324,8.7324,0,0,0,3.13-2.4479l4.0647,3.6832A13.167,13.167,0,0,1,332.68,135.64a16.4986,16.4986,0,0,1-6.5921,1.2611,17.9692,17.9692,0,0,1-6.5515-1.1641,15.5033,15.5033,0,0,1-5.195-3.26,15.0465,15.0465,0,0,1-3.4569-5.0672,18.2711,18.2711,0,0,1-.0291-13.2325,15.0094,15.0094,0,0,1,3.4181-5.1027,15.3472,15.3472,0,0,1,5.2-3.292,17.9114,17.9114,0,0,1,6.487-1.161,17.057,17.057,0,0,1,6.4269,1.29,11.8056,11.8056,0,0,1,5.0641,3.7446Z"/><path class="cls-2" d="M360.5592,116.2411a6.0658,6.0658,0,0,0-2.0646-5.0641,8.5315,8.5315,0,0,0-5.4844-1.6492,12.1472,12.1472,0,0,0-4.875.9992,12.462,12.462,0,0,0-3.8433,2.5514l-3.2272-3.8706a16.2914,16.2914,0,0,1,5.5183-3.36,19.8164,19.8164,0,0,1,7.006-1.2257,15.8275,15.8275,0,0,1,5.7139.9378,10.815,10.815,0,0,1,3.9694,2.5514,10.4114,10.4114,0,0,1,2.3218,3.8062,13.9436,13.9436,0,0,1,.7826,4.7116v13.3649q0,1.5474.0906,3.26a16.9379,16.9379,0,0,0,.3573,2.8068h-5.4909a19.0876,19.0876,0,0,1-.5157-4.3882h-.1989a11.6134,11.6134,0,0,1-4.2216,3.8094,12.7409,12.7409,0,0,1-6.0359,1.355,15.9583,15.9583,0,0,1-3.7786-.4851,10.9816,10.9816,0,0,1-3.5814-1.578,8.9383,8.9383,0,0,1-2.679-2.9072,8.6349,8.6349,0,0,1-1.0688-4.4561,7.8515,7.8515,0,0,1,1.8771-5.52,11.8546,11.8546,0,0,1,4.9072-3.0979,27.48,27.48,0,0,1,6.8426-1.384q3.803-.33,7.6785-.3267Zm-1.4827,5.2322c-1.5053,0-3.07.0646-4.6824.1939a21.3389,21.3389,0,0,0-4.3848.7729,8.1146,8.1146,0,0,0-3.26,1.7462,3.943,3.943,0,0,0-1.2968,3.0979,4.291,4.291,0,0,0,.55,2.2572,4.5639,4.5639,0,0,0,1.4521,1.4843,5.8019,5.8019,0,0,0,2.0048.8116,11.2746,11.2746,0,0,0,2.2572.2232,8.3616,8.3616,0,0,0,6.55-2.5514,9.2486,9.2486,0,0,0,2.2926-6.4255v-1.61Z"/><path class="cls-2" d="M388.84,110.4333h-8.1378v15.8938a5.9972,5.9972,0,0,0,1.0364,3.9581,4.125,4.125,0,0,0,3.2887,1.1932,9.4745,9.4745,0,0,0,1.8093-.181,7.1132,7.1132,0,0,0,1.7415-.53l.194,4.97a14.533,14.533,0,0,1-2.4173.6144,16.5055,16.5055,0,0,1-2.7471.23q-4.3268,0-6.6162-2.3931-2.2968-2.3814-2.2911-7.1659v-16.589h-5.874v-4.97H374.7V96.6835h6.0018v8.7795H388.84Z"/><path class="cls-2" d="M401.4935,94.4263a3.6191,3.6191,0,0,1-1.1868,2.7712,4.0437,4.0437,0,0,1-2.85,1.0964,3.8717,3.8717,0,0,1-2.8167-1.1286,3.68,3.68,0,0,1-1.1495-2.739,3.7712,3.7712,0,0,1,1.1495-2.81,3.8775,3.8775,0,0,1,2.8167-1.1352,3.9819,3.9819,0,0,1,2.85,1.1352,3.7317,3.7317,0,0,1,1.1868,2.81m-.9719,41.6343h-6.0647V105.46h6.0647Z"/><path class="cls-2" d="M438.8011,120.694a16.5633,16.5633,0,0,1-1.258,6.5224,15.4587,15.4587,0,0,1-3.4891,5.1319,15.6928,15.6928,0,0,1-5.2614,3.3567,18.36,18.36,0,0,1-13.0384,0,15.2994,15.2994,0,0,1-5.229-3.3567,15.7152,15.7152,0,0,1-3.4536-5.1319,16.5632,16.5632,0,0,1-1.2579-6.5224,16.3046,16.3046,0,0,1,1.2579-6.4838,15.2968,15.2968,0,0,1,8.6826-8.3947,18.4044,18.4044,0,0,1,13.0384,0,15.9771,15.9771,0,0,1,5.2614,3.3276,15.22,15.22,0,0,1,3.4891,5.0671,16.3046,16.3046,0,0,1,1.258,6.4838m-6.3253.0354a12.8624,12.8624,0,0,0-.6823-4.1876,10.5118,10.5118,0,0,0-1.9709-3.5053,9.4429,9.4429,0,0,0-3.21-2.4091,11.0363,11.0363,0,0,0-8.7407,0,9.3828,9.3828,0,0,0-3.2063,2.4091,10.7533,10.7533,0,0,0-1.9773,3.5053,13.2492,13.2492,0,0,0,0,8.3753,11.1649,11.1649,0,0,0,1.9773,3.541,9.3055,9.3055,0,0,0,3.2063,2.4415,11.0724,11.0724,0,0,0,8.7407,0,9.3643,9.3643,0,0,0,3.21-2.4415,10.9078,10.9078,0,0,0,1.9709-3.541,12.8621,12.8621,0,0,0,.6823-4.1877"/><path class="cls-2" d="M446.8078,105.46c.0872.7794.15,1.6459.1924,2.6193.0387.9669.07,1.7754.07,2.4156h.1892a8.9556,8.9556,0,0,1,1.5812-2.2894,11.42,11.42,0,0,1,8.3625-3.58,11.9153,11.9153,0,0,1,5.0948.9958,10.3327,10.3327,0,0,1,3.5554,2.684,10.8431,10.8431,0,0,1,2.0971,3.9356,16.8409,16.8409,0,0,1,.6758,4.8408v18.9788h-6.0664V119.0835a20.8732,20.8732,0,0,0-.2894-3.5474,8.5152,8.5152,0,0,0-1.0687-2.9751,5.7755,5.7755,0,0,0-2.1312-2.0663,6.9813,6.9813,0,0,0-3.4842-.7728,7.3444,7.3444,0,0,0-5.9064,2.7423,11.0488,11.0488,0,0,0-2.2895,7.3308v16.2656h-6.0682V112.0469c0-.818-.0275-1.8724-.0631-3.1658-.0485-1.2871-.11-2.4318-.1955-3.4213Z"/><path class="cls-2" d="M244.85,145.4385h12.6827a24.3,24.3,0,0,1,4.8715.5076,13.265,13.265,0,0,1,4.4142,1.7463,9.6876,9.6876,0,0,1,3.19,3.3405,10.3257,10.3257,0,0,1,1.2305,5.287,8.9187,8.9187,0,0,1-2.06,5.8563,9.6391,9.6391,0,0,1-5.4909,3.2824v.1131a11.2592,11.2592,0,0,1,6.8621,3.2207,10.0473,10.0473,0,0,1,2.7326,7.4247,10.5123,10.5123,0,0,1-1.1108,4.8377,10.6483,10.6483,0,0,1-3.1514,3.7284,15.1247,15.1247,0,0,1-4.9767,2.3736,23.8983,23.8983,0,0,1-6.5968.8408H244.85Zm4.3284,18.63h8.7148a14.324,14.324,0,0,0,3.1562-.3525,8.8437,8.8437,0,0,0,2.9136-1.2385,6.5662,6.5662,0,0,0,2.1359-2.3088,7.18,7.18,0,0,0,.8149-3.5443,6.4756,6.4756,0,0,0-3.0074-5.7755,9.3447,9.3447,0,0,0-3.2482-1.29,19.1812,19.1812,0,0,0-3.9647-.3977h-7.5151Zm0,20.2012h8.05a21.6155,21.6155,0,0,0,4.48-.45,11.5261,11.5261,0,0,0,3.7253-1.4454,7.6553,7.6553,0,0,0,2.5578-2.5805,8.2541,8.2541,0,0,0-1.8932-10.1022q-2.8546-2.076-8.086-2.0728h-8.8345Z"/><path class="cls-2" d="M296.0623,169.7885c0-2.4221-.6386-4.2362-1.9224-5.4295a7.9122,7.9122,0,0,0-5.5878-1.7914,12.0711,12.0711,0,0,0-4.6922.9022,11.1231,11.1231,0,0,0-3.6622,2.4091l-2.2878-2.7066a13.4419,13.4419,0,0,1,4.5983-2.8846,17.25,17.25,0,0,1,6.4642-1.1414,13.9364,13.9364,0,0,1,4.2685.6274,10.1865,10.1865,0,0,1,3.4877,1.8916,8.6227,8.6227,0,0,1,2.3428,3.1918,11.1757,11.1757,0,0,1,.8376,4.5045v12.3237q0,1.62.1212,3.3663a23.456,23.456,0,0,0,.3606,2.946h-3.6622q-.1821-1.0234-.3023-2.2248a23.2733,23.2733,0,0,1-.12-2.3413h-.12a11.811,11.811,0,0,1-4.3557,4.0553,12.8774,12.8774,0,0,1-5.8627,1.2351,13.0851,13.0851,0,0,1-3.3389-.4526,9.4229,9.4229,0,0,1-3.1254-1.4746,8.336,8.336,0,0,1-2.3412-2.6613,7.8363,7.8363,0,0,1-.9378-3.9776,7.593,7.593,0,0,1,1.659-5.1611,9.8789,9.8789,0,0,1,4.4155-2.8326,25.89,25.89,0,0,1,6.3414-1.2062q3.58-.2717,7.4213-.2717Zm-1.2,4.1425q-2.5294,0-5.0817.21a22.5524,22.5524,0,0,0-4.6258.8407,8.721,8.721,0,0,0-3.3971,1.8335,4.089,4.089,0,0,0-1.3225,3.1854,5.1568,5.1568,0,0,0,.5707,2.5287,4.6352,4.6352,0,0,0,1.5344,1.6492,6.25,6.25,0,0,0,2.1325.9022,10.4714,10.4714,0,0,0,2.3736.2717,9.4518,9.4518,0,0,0,3.8483-.7471,8.1359,8.1359,0,0,0,2.8246-2.05,8.9415,8.9415,0,0,0,1.7445-2.9685,10.5579,10.5579,0,0,0,.5982-3.5474V173.931Z"/><path class="cls-2" d="M309.5875,159.8642c.0792.7631.1422,1.6007.1812,2.5254s.0581,1.6784.0581,2.2832h.1245a9.2908,9.2908,0,0,1,3.9047-3.997,11.3793,11.3793,0,0,1,5.7141-1.53q5.3452,0,8.0195,3.1852a12.6145,12.6145,0,0,1,2.6776,8.4141v17.252h-4.089V172.43a20.4174,20.4174,0,0,0-.3606-4.0292,8.4681,8.4681,0,0,0-1.23-3.0979,5.95,5.95,0,0,0-2.3429-2.0147,8.4247,8.4247,0,0,0-3.6961-.7179,7.803,7.803,0,0,0-5.8935,2.6745,10.0158,10.0158,0,0,0-1.9241,3.4277,14.8316,14.8316,0,0,0-.7227,4.8958v14.4289H305.92V166.0568c0-.7631-.0177-1.743-.06-2.946q-.058-1.8045-.1795-3.2466Z"/><polygon class="cls-2" points="340.547 172.547 340.727 172.547 353.713 159.864 359.605 159.864 345.414 172.731 361.041 187.998 355.033 187.998 340.727 173.21 340.547 173.21 340.547 187.998 336.46 187.998 336.46 142.554 340.547 142.554 340.547 172.547"/></g></g></svg>