<svg xmlns="http://www.w3.org/2000/svg" viewBox="0 0 429.0561 758.312"><defs><style>.cls-1{fill:#fff;}.cls-2{fill:aqua;}</style></defs><g id="Layer_2" data-name="Layer 2"><g id="Layer_2-2" data-name="Layer 2"><path class="cls-1" d="M214.6914,131.7958c-45.7279,0-82.9482,36.9983-82.9482,82.4923,0,38.3422,28.1286,75.9131,69.4158,79.8513l3.4769,253.1448c0,25.5224,2.15,30.5944,10.0555,37.5243,8.6889-7.2685,10.0735-12.0019,10.0735-37.5243l3.4823-253.1448c36.18-4.6861,69.4157-41.5091,69.4157-79.8513,0-45.494-37.22-82.4923-82.9715-82.4923m-.1693,148.3319a66.4415,66.4415,0,1,1,66.4355-66.4469,66.4443,66.4443,0,0,1-66.4355,66.4469"/><path class="cls-1" d="M214.6681,65.36c-82.305,0-149.4071,66.7981-149.4071,148.9512a146.4674,146.4674,0,0,0,8.0344,47.633L86.6,254.2081a132.19,132.19,0,0,1-6.1879-39.8966c0-73.8327,60.2829-133.7943,134.2562-133.7943,74.0606,0,134.2621,59.9616,134.2621,133.7943,0,48.0069-28.8472,92.9863-69.8891,115.95l-2.9623,217.701c0,12.9951,0,27.1588-4.4288,41.1819l11.2127,13.17c8.367-19.259,8.373-38.6342,8.373-54.3523l2.869-209.0766c42.7883-27.3455,69.9764-75.3638,69.9764-124.574,0-82.1531-67.0081-148.9512-149.413-148.9512"/><path class="cls-2" d="M118.4214,307.2978l-13.3924,7.7251a140.8642,140.8642,0,0,0,30.2784,25.2184l2.869,207.2649c0,30.8164,2.5184,60.7915,32.7388,87.307l33.0721,28.9353,9.7749,8.6243,9.9215-8.4143,33.7087-28.2454-9.7049-11.5806-33.6914,28.2453-33.1007-28.9932c-25.5224-22.3327-27.5621-47.6331-27.5621-76.1237L150.371,331.3716a125.6037,125.6037,0,0,1-31.95-24.0738"/><path class="cls-1" d="M413.9046,226.278c-3.5523,52.9384-30.3485,102.6746-70.0464,137.1366l-2.4891,184.7c0,29.3086-.4559,83.0769-51.7226,126L213.0029,738.411l-75.1244-65.8749c-49.3736-43.32-49.8235-95.8147-49.8235-124.422L85.5539,365.6A198.8218,198.8218,0,0,1,15.14,214.3115C15.14,104.52,104.643,15.1449,214.6681,15.1449c91.2572,0,168.5021,61.4927,192.114,145.1649h15.7588C398.4617,68.2353,314.4036,0,214.6681,0,96.3113,0,0,96.1767,0,214.3115A213.1314,213.1314,0,0,0,70.473,372.5648l2.4484,175.6893c0,28.2454,0,87.459,54.9715,135.6293L203.0874,749.77l9.7,8.5423,9.9742-8.3084,76.5616-64.239c57.186-47.9244,57.186-108.5753,57.186-137.65l2.43-177.8863c41.1178-38.0149,66.7047-90.7307,70.117-143.95Z"/></g></g></svg>