<svg xmlns="http://www.w3.org/2000/svg" viewBox="0 0 62.1392 62.1388"><defs><style>.cls-1{fill:#fff;}</style></defs><g id="Layer_2" data-name="Layer 2"><g id="Layer_2-2" data-name="Layer 2"><path class="cls-1" d="M62.1339,22.4132c-.0012-.0354-.0029-.07-.0052-.1058a3.1839,3.1839,0,0,0-.05-.4019l0-.0026a3.1751,3.1751,0,0,0-.1085-.394c-.0111-.0326-.0227-.0647-.0347-.0969a3.1833,3.1833,0,0,0-.1573-.3574l-.0093-.02a3.1607,3.1607,0,0,0-.2187-.3476c-.02-.0282-.0407-.0559-.0619-.0836a3.1619,3.1619,0,0,0-.2744-.319L41.8544.9258a3.1545,3.1545,0,0,0-.3186-.2741C41.5078.63,41.48.6094,41.4512.5891a3.1556,3.1556,0,0,0-.3468-.2182l-.0212-.01a3.1745,3.1745,0,0,0-.356-.1567C40.6949.1922,40.6628.1805,40.63.17a3.1594,3.1594,0,0,0-.3944-.1086l-.0008,0a3.167,3.167,0,0,0-.4043-.05c-.0346-.0024-.0691-.004-.1039-.0052S39.6552,0,39.6191,0H3.161A3.1611,3.1611,0,0,0,0,3.161V58.9778a3.1611,3.1611,0,0,0,3.161,3.161H58.9781a3.1611,3.1611,0,0,0,3.1611-3.161V22.52C62.1392,22.4842,62.1351,22.4489,62.1339,22.4132ZM6.322,6.322H36.4581V22.52H6.322ZM31.07,50.7179a8.55,8.55,0,1,1,8.5494-8.55A8.55,8.55,0,0,1,31.07,50.7179Z"/></g></g></svg>