<svg xmlns="http://www.w3.org/2000/svg" viewBox="0 0 255.8348 137.7246"><defs><style>.cls-1{fill:#0d1f42;stroke:#fff;stroke-miterlimit:10;stroke-width:1.5058px;}.cls-2{fill:#fff;}.cls-3{fill:aqua;}</style></defs><g id="Layer_2" data-name="Layer 2"><g id="Layer_2-2" data-name="Layer 2"><path class="cls-1" d="M200.4118.7529H55.423A36.3115,36.3115,0,0,0,23.9762,18.9087L5.6177,50.7065a36.3118,36.3118,0,0,0,0,36.3116l18.3585,31.7978A36.3115,36.3115,0,0,0,55.423,136.9717H200.4118a36.3116,36.3116,0,0,0,31.4468-18.1558L250.217,87.0181a36.3113,36.3113,0,0,0,0-36.3116L231.8586,18.9087A36.3116,36.3116,0,0,0,200.4118.7529Z"/><path class="cls-2" d="M72.84,35.8339a10.7319,10.7319,0,0,0-10.749,10.69c0,4.9686,3.6451,9.8373,8.9954,10.3477l.4505,32.8043c0,3.3073.2786,3.9646,1.3031,4.8626,1.126-.9419,1.3054-1.5553,1.3054-4.8626l.4513-32.8043a10.99,10.99,0,0,0,8.9953-10.3477,10.7325,10.7325,0,0,0-10.752-10.69m-.0219,19.2219a8.61,8.61,0,1,1,8.6091-8.6107,8.61,8.61,0,0,1-8.6091,8.6107"/><path class="cls-2" d="M77.1156,99.6343l-4.366,3.66L68.46,99.5358c-3.3074-2.8924-3.5717-6.1725-3.5717-9.863l-.3816-27.9765a16.3021,16.3021,0,0,1-4.1411-3.12l-1.7392,1.001a18.2112,18.2112,0,0,0,3.926,3.268l.3718,26.8588c0,3.9934.3263,7.8778,4.2425,11.3139l4.2872,3.75,1.266,1.1176,1.2849-1.09,4.366-3.66.0144-.0091Z"/><path class="cls-2" d="M72.8367,27.2247A19.3584,19.3584,0,0,0,53.4755,46.5268a18.9813,18.9813,0,0,0,1.0411,6.1726l1.7241-1.0025a17.1313,17.1313,0,0,1-.8019-5.17,17.3984,17.3984,0,0,1,34.7965,0,17.6354,17.6354,0,0,1-9.0567,15.0256l-.3839,28.2112A17.3527,17.3527,0,0,1,80.2208,95.1l1.453,1.7067a17.0164,17.0164,0,0,0,1.0851-7.0434L83.1306,62.67A19.16,19.16,0,0,0,72.8367,27.2247"/><path class="cls-3" d="M60.3644,58.5767l-1.7355,1.001a18.2514,18.2514,0,0,0,3.9237,3.268l.3718,26.8588c0,3.9934.3263,7.8778,4.2425,11.3139l4.2857,3.75,1.2667,1.1176,1.2857-1.09,4.3682-3.66-1.2576-1.5007-4.366,3.66L68.46,99.5374c-3.3074-2.894-3.5717-6.1726-3.5717-9.8646l-.3839-27.9765a16.2787,16.2787,0,0,1-4.14-3.12"/><path class="cls-2" d="M98.6552,48.0775A26.2193,26.2193,0,0,1,89.578,65.8487l-.3225,23.9346c0,3.798-.0591,10.7657-6.7026,16.328l-9.932,8.332-9.7352-8.5365c-6.3981-5.6137-6.4564-12.4163-6.4564-16.1235l-.3241-23.6514a25.809,25.809,0,1,1,41.627-26.603h2.0421A27.8127,27.8127,0,1,0,54.1509,67.0344l.3173,22.7671c0,3.66,0,11.3335,7.1236,17.5758l9.7442,8.538,1.2569,1.1069,1.2925-1.0766,9.9214-8.3246c7.4106-6.21,7.4106-14.07,7.4106-17.8377l.3149-23.0517a28.2876,28.2876,0,0,0,9.0863-18.6541Z"/><polygon class="cls-2" points="118.365 61.81 127.917 61.81 127.917 64.471 115.371 64.471 115.371 43.068 118.365 43.068 118.365 61.81"/><path class="cls-2" d="M143.6986,57.2744a7.7557,7.7557,0,0,1-.59,3.0544,7.2578,7.2578,0,0,1-1.6332,2.4033,7.354,7.354,0,0,1-2.4654,1.572,8.5949,8.5949,0,0,1-6.1044,0,7.1747,7.1747,0,0,1-2.451-1.572,7.3041,7.3041,0,0,1-1.6151-2.4033,7.7312,7.7312,0,0,1-.5906-3.0544,7.6105,7.6105,0,0,1,.5906-3.0364,7.19,7.19,0,0,1,1.6151-2.373,7.3033,7.3033,0,0,1,2.451-1.5583,8.6151,8.6151,0,0,1,6.1044,0,7.4889,7.4889,0,0,1,2.4654,1.5583,7.1457,7.1457,0,0,1,1.6332,2.373,7.6346,7.6346,0,0,1,.59,3.0364m-2.9636.0166a6.0851,6.0851,0,0,0-.318-1.9612,4.981,4.981,0,0,0-.9245-1.6415,4.4427,4.4427,0,0,0-1.5031-1.1282,5.17,5.17,0,0,0-4.0941,0,4.4051,4.4051,0,0,0-1.5007,1.1282,4.9617,4.9617,0,0,0-.923,1.6415,6.1641,6.1641,0,0,0,0,3.9223,5.1482,5.1482,0,0,0,.923,1.6582,4.37,4.37,0,0,0,1.5007,1.1434,5.1872,5.1872,0,0,0,4.0941,0,4.4067,4.4067,0,0,0,1.5031-1.1434,5.1687,5.1687,0,0,0,.9245-1.6582,6.0849,6.0849,0,0,0,.318-1.9611"/><path class="cls-2" d="M156.7267,53.7686a3.498,3.498,0,0,0-1.3607-1.1646,4.1587,4.1587,0,0,0-1.9338-.4664,4.3742,4.3742,0,0,0-3.4459,1.5568,4.9372,4.9372,0,0,0-.9223,1.6461,6.2575,6.2575,0,0,0,0,3.93,4.997,4.997,0,0,0,.9223,1.6491,4.4185,4.4185,0,0,0,1.4818,1.1312,4.5107,4.5107,0,0,0,1.9929.4241,4.56,4.56,0,0,0,1.983-.4241,4.0884,4.0884,0,0,0,1.466-1.1463l1.9035,1.7248a6.1657,6.1657,0,0,1-2.2654,1.6446,7.7255,7.7255,0,0,1-3.0871.5906,8.4152,8.4152,0,0,1-3.0681-.5451,7.26,7.26,0,0,1-2.4328-1.5265,7.0446,7.0446,0,0,1-1.6189-2.373,8.5559,8.5559,0,0,1-.0137-6.1968,7.0292,7.0292,0,0,1,1.6008-2.39,7.186,7.186,0,0,1,2.4351-1.5416,8.3877,8.3877,0,0,1,3.0378-.5437,7.9878,7.9878,0,0,1,3.01.6042,5.5281,5.5281,0,0,1,2.3715,1.7537Z"/><path class="cls-2" d="M169.6042,55.189a2.84,2.84,0,0,0-.9669-2.3715,3.9953,3.9953,0,0,0-2.5684-.7723,5.688,5.688,0,0,0-2.2829.4679,5.8366,5.8366,0,0,0-1.8,1.1949l-1.5113-1.8127a7.6286,7.6286,0,0,1,2.5843-1.5734,9.28,9.28,0,0,1,3.2809-.574,7.41,7.41,0,0,1,2.6758.4392,5.0636,5.0636,0,0,1,1.8589,1.1948,4.8737,4.8737,0,0,1,1.0873,1.7824,6.5286,6.5286,0,0,1,.3665,2.2065V61.63q0,.7246.0424,1.5265a7.9216,7.9216,0,0,0,.1674,1.3145h-2.5714a8.9381,8.9381,0,0,1-.2415-2.055h-.0932a5.4379,5.4379,0,0,1-1.977,1.7839,5.9654,5.9654,0,0,1-2.8266.6346,7.47,7.47,0,0,1-1.7695-.2272,5.14,5.14,0,0,1-1.6772-.739,4.1852,4.1852,0,0,1-1.2546-1.3614,4.0438,4.0438,0,0,1-.5-2.0868,3.6771,3.6771,0,0,1,.879-2.5851,5.5524,5.5524,0,0,1,2.2981-1.4507,12.8716,12.8716,0,0,1,3.2044-.6482q1.781-.1544,3.5959-.1529Zm-.6944,2.45c-.7049,0-1.4379.03-2.1928.0908a9.9912,9.9912,0,0,0-2.0534.362,3.8,3.8,0,0,0-1.5265.8177,1.8466,1.8466,0,0,0-.6073,1.4508,2.0094,2.0094,0,0,0,.2574,1.057,2.1367,2.1367,0,0,0,.68.6951,2.7164,2.7164,0,0,0,.9389.38,5.2814,5.2814,0,0,0,1.057.1045,3.9156,3.9156,0,0,0,3.0674-1.1948,4.3311,4.3311,0,0,0,1.0737-3.0091v-.7541Z"/><path class="cls-2" d="M182.8481,52.4692h-3.8109v7.4432a2.8082,2.8082,0,0,0,.4853,1.8535,1.9315,1.9315,0,0,0,1.54.5588,4.4372,4.4372,0,0,0,.8473-.0847,3.3332,3.3332,0,0,0,.8156-.2484l.0908,2.3276a6.81,6.81,0,0,1-1.132.2877,7.7341,7.7341,0,0,1-1.2865.1076,4.0914,4.0914,0,0,1-3.0984-1.1207,4.6672,4.6672,0,0,1-1.0729-3.3559V52.4692h-2.7508V50.1416h2.7508V46.03h2.8107v4.1115h3.8109Z"/><path class="cls-2" d="M188.7739,44.9731a1.6954,1.6954,0,0,1-.5558,1.2978,1.894,1.894,0,0,1-1.3349.5134,1.8134,1.8134,0,0,1-1.3191-.5285,1.7234,1.7234,0,0,1-.5383-1.2827,1.7661,1.7661,0,0,1,.5383-1.316,1.816,1.816,0,0,1,1.3191-.5315,1.8652,1.8652,0,0,1,1.3349.5315,1.7482,1.7482,0,0,1,.5558,1.316m-.4552,19.4975h-2.84V50.14h2.84Z"/><path class="cls-2" d="M206.2452,57.2744a7.7555,7.7555,0,0,1-.5892,3.0544,7.2374,7.2374,0,0,1-1.634,2.4033,7.3475,7.3475,0,0,1-2.4639,1.572,8.599,8.599,0,0,1-6.1059,0,7.1653,7.1653,0,0,1-2.4488-1.572,7.3591,7.3591,0,0,1-1.6173-2.4033,7.7572,7.7572,0,0,1-.5891-3.0544,7.6361,7.6361,0,0,1,.5891-3.0364,7.163,7.163,0,0,1,4.0661-3.9313,8.6191,8.6191,0,0,1,6.1059,0,7.4821,7.4821,0,0,1,2.4639,1.5583,7.1258,7.1258,0,0,1,1.634,2.373,7.6344,7.6344,0,0,1,.5892,3.0364m-2.9622.0166a6.0241,6.0241,0,0,0-.3195-1.9612,4.925,4.925,0,0,0-.923-1.6415,4.4222,4.4222,0,0,0-1.5031-1.1282,5.1684,5.1684,0,0,0-4.0933,0,4.3929,4.3929,0,0,0-1.5015,1.1282,5.0365,5.0365,0,0,0-.926,1.6415,6.2063,6.2063,0,0,0,0,3.9223,5.2277,5.2277,0,0,0,.926,1.6582,4.3579,4.3579,0,0,0,1.5015,1.1434,5.1853,5.1853,0,0,0,4.0933,0,4.3867,4.3867,0,0,0,1.5031-1.1434,5.1091,5.1091,0,0,0,.923-1.6582,6.0239,6.0239,0,0,0,.3195-1.9611"/><path class="cls-2" d="M209.9947,50.14c.0409.365.07.7708.09,1.2267.0181.4528.0326.8314.0326,1.1312h.0886a4.1926,4.1926,0,0,1,.74-1.0722,5.349,5.349,0,0,1,3.9161-1.6764,5.58,5.58,0,0,1,2.386.4664,4.8392,4.8392,0,0,1,1.665,1.257,5.0762,5.0762,0,0,1,.982,1.843,7.8869,7.8869,0,0,1,.3165,2.267v8.8878h-2.8409V56.52a9.7748,9.7748,0,0,0-.1355-1.6613,3.9872,3.9872,0,0,0-.5005-1.3932,2.7045,2.7045,0,0,0-.998-.9677,3.27,3.27,0,0,0-1.6317-.3619A3.4393,3.4393,0,0,0,211.34,53.42a5.1741,5.1741,0,0,0-1.0722,3.433v7.6173h-2.8417V53.2249c0-.3831-.0129-.8768-.03-1.4826-.0227-.6027-.0515-1.1388-.0916-1.6022Z"/><path class="cls-2" d="M115.417,68.8623h5.9394a11.3828,11.3828,0,0,1,2.2813.2377,6.2131,6.2131,0,0,1,2.0672.8178,4.5367,4.5367,0,0,1,1.4939,1.5644,4.835,4.835,0,0,1,.5762,2.4759,4.1762,4.1762,0,0,1-.9647,2.7425,4.5138,4.5138,0,0,1-2.5714,1.5372v.0529a5.2734,5.2734,0,0,1,3.2136,1.5083,4.7052,4.7052,0,0,1,1.28,3.4771,4.923,4.923,0,0,1-.52,2.2655,4.9858,4.9858,0,0,1-1.4758,1.746,7.0825,7.0825,0,0,1-2.33,1.1115,11.1912,11.1912,0,0,1-3.0894.3938H115.417Zm2.027,8.7243h4.0812a6.708,6.708,0,0,0,1.478-.1651,4.1423,4.1423,0,0,0,1.3645-.58,3.0743,3.0743,0,0,0,1-1.0812,3.3618,3.3618,0,0,0,.3817-1.66,3.0327,3.0327,0,0,0-1.4084-2.7047,4.3758,4.3758,0,0,0-1.5212-.6042,8.981,8.981,0,0,0-1.8566-.1863H117.444Zm0,9.46h3.77a10.1232,10.1232,0,0,0,2.0981-.2105,5.3991,5.3991,0,0,0,1.7446-.6768,3.5847,3.5847,0,0,0,1.1978-1.2085,3.865,3.865,0,0,0-.8866-4.7309,6.3571,6.3571,0,0,0-3.7867-.9707H117.444Z"/><path class="cls-2" d="M139.4,80.2655a3.3118,3.3118,0,0,0-.9-2.5426,3.7054,3.7054,0,0,0-2.6169-.839,5.6525,5.6525,0,0,0-2.1973.4225,5.2111,5.2111,0,0,0-1.715,1.1282l-1.0714-1.2675a6.2954,6.2954,0,0,1,2.1534-1.3508,8.0771,8.0771,0,0,1,3.0272-.5346,6.5267,6.5267,0,0,1,1.9989.2938,4.77,4.77,0,0,1,1.6333.8859,4.0377,4.0377,0,0,1,1.0972,1.4947,5.2333,5.2333,0,0,1,.3922,2.1095v5.7712q0,.7588.0568,1.5765a10.9812,10.9812,0,0,0,.1689,1.38H139.712q-.0852-.4793-.1415-1.0419a10.8791,10.8791,0,0,1-.0561-1.0964h-.0561a5.5308,5.5308,0,0,1-2.04,1.8991,6.03,6.03,0,0,1-2.7455.5784,6.1262,6.1262,0,0,1-1.5636-.212,4.41,4.41,0,0,1-1.4636-.6905,3.9042,3.9042,0,0,1-1.0965-1.2463,3.67,3.67,0,0,1-.4391-1.8627,3.5557,3.5557,0,0,1,.7769-2.417,4.6265,4.6265,0,0,1,2.0678-1.3266,12.1241,12.1241,0,0,1,2.97-.5648q1.6764-.1272,3.4754-.1272Zm-.5618,1.94q-1.1846,0-2.38.0984a10.5553,10.5553,0,0,0-2.1663.3938,4.0822,4.0822,0,0,0-1.5908.8586,1.9147,1.9147,0,0,0-.6194,1.4917,2.4149,2.4149,0,0,0,.2673,1.1842,2.169,2.169,0,0,0,.7186.7723,2.9254,2.9254,0,0,0,.9986.4225,4.8986,4.8986,0,0,0,1.1116.1273,4.4253,4.4253,0,0,0,1.8021-.35,3.8089,3.8089,0,0,0,1.3228-.96,4.188,4.188,0,0,0,.817-1.39,4.9458,4.9458,0,0,0,.28-1.6613v-.9874Z"/><path class="cls-2" d="M145.7339,75.6179c.0371.3574.0666.75.0849,1.1827s.0272.786.0272,1.0692h.0583a4.3509,4.3509,0,0,1,1.8286-1.8718,5.329,5.329,0,0,1,2.6759-.7163,4.6193,4.6193,0,0,1,3.7556,1.4917,5.9071,5.9071,0,0,1,1.2539,3.94v8.0792h-1.9149v-7.29a9.559,9.559,0,0,0-.1689-1.8869,3.9664,3.9664,0,0,0-.5761-1.4507,2.7877,2.7877,0,0,0-1.0972-.9435,3.9449,3.9449,0,0,0-1.731-.3362,3.6544,3.6544,0,0,0-2.76,1.2524,4.6924,4.6924,0,0,0-.9011,1.6053,6.9461,6.9461,0,0,0-.3384,2.2927v6.7571h-1.9142V78.5179c0-.3573-.0083-.8162-.028-1.38q-.0272-.8451-.084-1.52Z"/><polygon class="cls-2" points="160.232 81.557 160.317 81.557 166.398 75.618 169.157 75.618 162.512 81.644 169.83 88.793 167.016 88.793 160.317 81.868 160.232 81.868 160.232 88.793 158.318 88.793 158.318 67.511 160.232 67.511 160.232 81.557"/></g></g></svg>